<!DOCTYPE svg PUBLIC "-//W3C//DTD SVG 1.1//EN" "http://www.w3.org/Graphics/SVG/1.1/DTD/svg11.dtd">
<!-- Uploaded to: SVG Repo, www.svgrepo.com, Transformed by: SVG Repo Mixer Tools -->
<svg width="20px" height="20px" viewBox="0 0 24.00 24.00" fill="none" xmlns="http://www.w3.org/2000/svg" transform="rotate(0)" stroke="#062443" stroke-width="0.00024000000000000003">
<g id="SVGRepo_bgCarrier" stroke-width="0"/>
<g id="SVGRepo_tracerCarrier" stroke-linecap="round" stroke-linejoin="round" stroke="#CCCCCC" stroke-width="0.288"/>
<g id="SVGRepo_iconCarrier"> <path fill-rule="evenodd" clip-rule="evenodd" d="M13 6C13 5.44771 12.5523 5 12 5C11.4477 5 11 5.44771 11 6V11H6C5.44771 11 5 11.4477 5 12C5 12.5523 5.44771 13 6 13H11V18C11 18.5523 11.4477 19 12 19C12.5523 19 13 18.5523 13 18V13H18C18.5523 13 19 12.5523 19 12C19 11.4477 18.5523 11 18 11H13V6Z" fill="#062443"/> </g>
</svg>